<svg version="1.1" id="Layer_1" xmlns="http://www.w3.org/2000/svg" xmlns:xlink="http://www.w3.org/1999/xlink" x="0px" y="0px"
	 width="75px" viewBox="0 0 142 90" enable-background="new 0 0 142 90" xml:space="preserve">
<path fill="#FFFEFE" fill-opacity="0" stroke="none" 
	d="
M106.000000,91.000000 
	C70.704239,91.000000 35.908478,91.000000 1.056357,91.000000 
	C1.056357,61.070019 1.056357,31.139904 1.056357,1.104894 
	C48.212143,1.104894 95.424599,1.104894 142.818527,1.104894 
	C142.818527,30.999083 142.818527,60.999470 142.818527,91.000000 
	C130.807053,91.000000 118.653526,91.000000 106.000000,91.000000 
M97.522690,70.310890 
	C104.053879,67.343735 106.492470,61.849110 107.011154,55.105343 
	C107.636192,46.978695 108.020714,38.810749 109.209167,30.764038 
	C109.569084,28.327133 112.264870,26.242641 113.865158,23.978655 
	C114.787735,22.673460 115.659164,21.332117 117.212769,19.030556 
	C110.440010,18.450275 105.332993,17.648298 100.225487,17.645172 
	C86.315018,17.636656 81.073105,23.660198 80.763000,34.977829 
	C80.581276,41.610008 79.712318,48.242432 78.818695,54.829456 
	C78.203384,59.364941 77.934258,64.355682 71.778526,65.517715 
	C70.990944,65.666389 70.115364,67.474640 70.053093,68.558464 
	C70.014503,69.230156 71.343643,70.464569 72.213387,70.629005 
	C80.402512,72.177330 88.624969,73.540253 97.522690,70.310890 
M39.181683,24.060806 
	C39.176151,34.537308 39.170509,45.013805 39.165131,55.490307 
	C39.160557,64.393440 39.160690,64.393440 30.621204,65.461411 
	C29.537931,68.721237 30.864681,70.699463 34.111328,71.059341 
	C39.031570,71.604767 44.008568,72.263977 48.928192,72.062538 
	C60.113110,71.604591 66.226639,65.718254 66.711212,54.661171 
	C67.154938,44.536198 66.870575,34.378613 66.872925,24.235392 
	C66.873695,20.900126 65.448265,18.883904 61.802307,18.908167 
	C55.982826,18.946896 50.162201,18.945787 44.343204,18.871656 
	C41.320663,18.833149 39.706364,20.275570 39.181683,24.060806 
z"/>
<path fill="#cf4f38" opacity="1.000000" stroke="none" 
	d="
M97.181473,70.514336 
	C88.624969,73.540253 80.402512,72.177330 72.213387,70.629005 
	C71.343643,70.464569 70.014503,69.230156 70.053093,68.558464 
	C70.115364,67.474640 70.990944,65.666389 71.778526,65.517715 
	C77.934258,64.355682 78.203384,59.364941 78.818695,54.829456 
	C79.712318,48.242432 80.581276,41.610008 80.763000,34.977829 
	C81.073105,23.660198 86.315018,17.636656 100.225487,17.645172 
	C105.332993,17.648298 110.440010,18.450275 117.212769,19.030556 
	C115.659164,21.332117 114.787735,22.673460 113.865158,23.978655 
	C112.264870,26.242641 109.569084,28.327133 109.209167,30.764038 
	C108.020714,38.810749 107.636192,46.978695 107.011154,55.105343 
	C106.492470,61.849110 104.053879,67.343735 97.181473,70.514336 
z"/>
<path fill="#cf4f38" opacity="1.000000" stroke="none" 
	d="
M39.211819,23.618000 
	C39.706364,20.275570 41.320663,18.833149 44.343204,18.871656 
	C50.162201,18.945787 55.982826,18.946896 61.802307,18.908167 
	C65.448265,18.883904 66.873695,20.900126 66.872925,24.235392 
	C66.870575,34.378613 67.154938,44.536198 66.711212,54.661171 
	C66.226639,65.718254 60.113110,71.604591 48.928192,72.062538 
	C44.008568,72.263977 39.031570,71.604767 34.111328,71.059341 
	C30.864681,70.699463 29.537931,68.721237 30.621204,65.461411 
	C39.160690,64.393440 39.160557,64.393440 39.165131,55.490307 
	C39.170509,45.013805 39.176151,34.537308 39.211819,23.618000 
z"/>
</svg>